<svg width="853" height="120" viewBox="0 0 853 120" fill="none" xmlns="http://www.w3.org/2000/svg">
<rect y="38" width="4" height="44" rx="2" fill="white"/>
<rect x="10" y="50.5" width="4" height="19" rx="2" fill="white"/>
<rect x="20" y="55" width="4" height="10" rx="2" fill="white"/>
<rect x="30" y="50" width="4" height="20" rx="2" fill="white"/>
<rect x="40" y="37.5" width="4" height="45" rx="2" fill="white"/>
<rect x="50" y="52.5" width="4" height="15" rx="2" fill="white"/>
<rect x="60" y="58" width="4" height="4" rx="2" fill="white"/>
<rect x="70" y="56" width="4" height="8" rx="2" fill="white"/>
<rect x="80" y="51" width="4" height="18" rx="2" fill="white"/>
<rect x="90" y="40" width="4" height="40" rx="2" fill="white"/>
<rect x="100" y="35" width="4" height="50" rx="2" fill="white"/>
<rect x="110" y="40" width="4" height="40" rx="2" fill="white"/>
<rect x="120" y="15" width="4" height="90" rx="2" fill="white"/>
<rect x="130" y="30" width="4" height="60" rx="2" fill="white"/>
<rect x="140" y="41.5" width="4" height="37" rx="2" fill="white"/>
<rect x="150" y="50" width="4" height="20" rx="2" fill="white"/>
<rect x="160" y="40" width="4" height="40" rx="2" fill="white"/>
<rect x="170" y="40" width="4" height="40" rx="2" fill="white"/>
<rect x="180" y="44" width="4" height="32" rx="2" fill="white"/>
<rect x="190" y="25" width="4" height="70" rx="2" fill="white"/>
<path fill-rule="evenodd" clip-rule="evenodd" d="M200 2C200 0.895429 200.895 0 202 0C203.105 0 204 0.895431 204 2V118C204 119.105 203.105 120 202 120C200.895 120 200 119.105 200 118V2Z" fill="white"/>
<rect x="210" y="19" width="4" height="82" rx="2" fill="white"/>
<rect x="220" y="35" width="4" height="50" rx="2" fill="white"/>
<rect x="230" y="44.5" width="4" height="31" rx="2" fill="white"/>
<rect x="240" y="50" width="4" height="20" rx="2" fill="white"/>
<rect x="250" y="37" width="4" height="46" rx="2" fill="white"/>
<rect x="260" y="34" width="4" height="52" rx="2" fill="white"/>
<rect x="270" y="48" width="4" height="24" rx="2" fill="white"/>
<rect x="280" y="55.25" width="4" height="9.5" rx="2" fill="white"/>
<rect x="290" y="51" width="4" height="18" rx="2" fill="white"/>
<rect x="300" y="54.5" width="4" height="11" rx="2" fill="white"/>
<rect x="310" y="40" width="4" height="40" rx="2" fill="white"/>
<rect x="320" y="36" width="4" height="48" rx="2" fill="white"/>
<rect x="330" y="47" width="4" height="26" rx="2" fill="white"/>
<rect x="340" y="55" width="4" height="10" rx="2" fill="white"/>
<rect x="350" y="58" width="4" height="4" rx="2" fill="white"/>
<rect x="360" y="51.5" width="4" height="17" rx="2" fill="white"/>
<rect x="370" y="33" width="4" height="54" rx="2" fill="white"/>
<rect x="380" y="38" width="4" height="44" rx="2" fill="white"/>
<rect x="390" y="50.5" width="4" height="19" rx="2" fill="white"/>
<rect x="400" y="55" width="4" height="10" rx="2" fill="white"/>
<rect x="410" y="50" width="4" height="20" rx="2" fill="white"/>
<rect x="420" y="37.5" width="4" height="45" rx="2" fill="white"/>
<rect x="430" y="52.5" width="4" height="15" rx="2" fill="white"/>
<rect x="440" y="58" width="4" height="4" rx="2" fill="white"/>
<rect x="450" y="56" width="4" height="8" rx="2" fill="white"/>
<rect x="460" y="51" width="4" height="18" rx="2" fill="white"/>
<rect x="470" y="40" width="4" height="40" rx="2" fill="white"/>
<rect x="480" y="35" width="4" height="50" rx="2" fill="white"/>
<rect x="490" y="40" width="4" height="40" rx="2" fill="white"/>
<rect x="500" y="15" width="4" height="90" rx="2" fill="white"/>
<rect x="510" y="30" width="4" height="60" rx="2" fill="white"/>
<rect x="520" y="41.5" width="4" height="37" rx="2" fill="white"/>
<rect x="530" y="50" width="4" height="20" rx="2" fill="white"/>
<rect x="540" y="40" width="4" height="40" rx="2" fill="white"/>
<rect x="550" y="40" width="4" height="40" rx="2" fill="white"/>
<rect x="560" y="44" width="4" height="32" rx="2" fill="white"/>
<rect x="570" y="25" width="4" height="70" rx="2" fill="white"/>
<path fill-rule="evenodd" clip-rule="evenodd" d="M580 2C580 0.895429 580.895 0 582 0C583.105 0 584 0.895431 584 2V118C584 119.105 583.105 120 582 120C580.895 120 580 119.105 580 118V2Z" fill="white"/>
<rect x="590" y="19" width="4" height="82" rx="2" fill="white"/>
<rect x="600" y="35" width="4" height="50" rx="2" fill="white"/>
<rect x="610" y="44.5" width="4" height="31" rx="2" fill="white"/>
<rect x="620" y="50" width="4" height="20" rx="2" fill="white"/>
<rect x="630" y="37" width="4" height="46" rx="2" fill="white"/>
<rect x="640" y="34" width="4" height="52" rx="2" fill="white"/>
<rect x="650" y="48" width="4" height="24" rx="2" fill="white"/>
<rect x="660" y="55.25" width="4" height="9.5" rx="2" fill="white"/>
<rect x="670" y="51" width="4" height="18" rx="2" fill="white"/>
<rect x="680" y="54.5" width="4" height="11" rx="2" fill="white"/>
<rect x="690" y="40" width="4" height="40" rx="2" fill="white"/>
<rect x="700" y="36" width="4" height="48" rx="2" fill="white"/>
<rect x="710" y="47" width="4" height="26" rx="2" fill="white"/>
<rect x="720" y="55" width="4" height="10" rx="2" fill="white"/>
<rect x="730" y="58" width="4" height="4" rx="2" fill="white"/>
<rect x="740" y="51.5" width="4" height="17" rx="2" fill="white"/>
<rect x="750" y="33" width="4" height="54" rx="2" fill="white"/>
<rect x="760" y="55.25" width="4" height="9.5" rx="2" fill="white"/>
<rect x="770" y="51" width="4" height="18" rx="2" fill="white"/>
<rect x="780" y="54.5" width="4" height="11" rx="2" fill="white"/>
<rect x="790" y="40" width="4" height="40" rx="2" fill="white"/>
<rect x="800" y="36" width="4" height="48" rx="2" fill="white"/>
<rect x="810" y="47" width="4" height="26" rx="2" fill="white"/>
<rect x="820" y="55" width="4" height="10" rx="2" fill="white"/>
<rect x="830" y="58" width="4" height="4" rx="2" fill="white"/>
<rect x="840" y="51.5" width="4" height="17" rx="2" fill="white"/>
<rect x="850" y="33" width="4" height="54" rx="2" fill="white"/>
</svg>
