<svg width="160" height="160" viewBox="0 0 160 160" fill="none" xmlns="http://www.w3.org/2000/svg">
<path d="M0 26.6667C0 11.9391 11.9391 0 26.6667 0H133.333C148.061 0 160 11.9391 160 26.6667V133.333C160 148.061 148.061 160 133.333 160H26.6667C11.9391 160 0 148.061 0 133.333V26.6667Z" fill="black"/>
<path d="M59.5417 94.1632H60.8733V101.333H56.8785C52.3715 101.333 49.8108 98.875 49.8108 94.2656V85.0469H35.9826V101.333H28.0955V62.4097H35.9826V78.0816H42.6406L52.0642 62.4097H60.7708L50.6302 78.0816H57.6979V92.3194C57.6979 93.4462 58.4149 94.1632 59.5417 94.1632Z" fill="white"/>
<path d="M133.292 94.1632H134.726V101.333H130.731C126.224 101.333 123.663 98.875 123.663 94.2656V85.0469H112.293V101.333H104.406V85.0469H92.934V94.2656C92.934 98.875 90.3733 101.333 85.8663 101.333H81.974V94.1632H83.3056C84.4323 94.1632 85.0469 93.4462 85.0469 92.3194V78.0816H91.5L82.0764 62.4097H90.6806L99.4896 78.0816H104.406V62.4097H112.293V78.0816H117.108L125.917 62.4097H134.521L125.097 78.0816H131.55V92.3194C131.55 93.4462 132.267 94.1632 133.292 94.1632Z" fill="white"/>
</svg>
